<svg xmlns="http://www.w3.org/2000/svg" xmlns:xlink="http://www.w3.org/1999/xlink" width="2578pt" height="3112" viewBox="0 0 2577.69 2333.87"><g id="graph0" class="graph" transform="scale(1 1) rotate(0) translate(4 2329.8736)"><title>G</title><polygon fill="#fff" stroke="transparent" points="-4 4 -4 -2329.874 2573.686 -2329.874 2573.686 4 -4 4"/><g id="node1" class="node"><title>0000</title><ellipse cx="1201.875" cy="-964.86" fill="none" stroke="red" rx="30.201" ry="18"/><text x="1201.875" y="-960.66" fill="#000" font-family="Times,serif" font-size="14" text-anchor="middle">0000</text></g><g id="node2" class="node"><title>1000</title><ellipse cx="2019.163" cy="-964.86" fill="none" stroke="#000" rx="30.201" ry="18"/><text x="2019.163" y="-960.66" fill="#000" font-family="Times,serif" font-size="14" text-anchor="middle">1000</text></g><g id="edge1" class="edge"><title>0000--1000</title><path fill="none" stroke="#000" d="M1232.4222,-964.8599C1361.2327,-964.8599 1859.3595,-964.8599 1988.4628,-964.8599"/></g><g id="node3" class="node"><title>9000</title><ellipse cx="1245.07" cy="-1781.006" fill="none" stroke="#000" rx="30.201" ry="18"/><text x="1245.07" y="-1776.806" fill="#000" font-family="Times,serif" font-size="14" text-anchor="middle">9000</text></g><g id="edge2" class="edge"><title>0000--9000</title><path fill="none" stroke="#000" d="M1202.8379,-983.0506C1208.5889,-1091.7118 1238.3476,-1653.9878 1244.105,-1762.7711"/></g><g id="node4" class="node"><title>0100</title><ellipse cx="420.232" cy="-1203.594" fill="none" stroke="#000" rx="30.201" ry="18"/><text x="420.232" y="-1199.394" fill="#000" font-family="Times,serif" font-size="14" text-anchor="middle">0100</text></g><g id="edge3" class="edge"><title>0000--0100</title><path fill="none" stroke="#000" d="M1174.5144,-973.2166C1053.5974,-1010.1477 567.84,-1158.5105 447.3708,-1195.3048"/></g><g id="node5" class="node"><title>0900</title><ellipse cx="490.76" cy="-562.026" fill="none" stroke="#000" rx="30.201" ry="18"/><text x="490.76" y="-557.826" fill="#000" font-family="Times,serif" font-size="14" text-anchor="middle">0900</text></g><g id="edge4" class="edge"><title>0000--0900</title><path fill="none" stroke="#000" d="M1179.8132,-952.3622C1073.9676,-892.4026 618.9675,-634.6531 512.916,-574.5769"/></g><g id="node6" class="node"><title>0010</title><ellipse cx="762.021" cy="-276.029" fill="none" stroke="#000" rx="30.201" ry="18"/><text x="762.021" y="-271.829" fill="#000" font-family="Times,serif" font-size="14" text-anchor="middle">0010</text></g><g id="edge5" class="edge"><title>0000--0010</title><path fill="none" stroke="#000" d="M1191.0023,-947.8325C1130.2799,-852.7387 833.6653,-388.2273 772.9074,-293.078"/></g><g id="node7" class="node"><title>0090</title><ellipse cx="1135.598" cy="-150.264" fill="none" stroke="#000" rx="30.201" ry="18"/><text x="1135.598" y="-146.064" fill="#000" font-family="Times,serif" font-size="14" text-anchor="middle">0090</text></g><g id="edge6" class="edge"><title>0000--0090</title><path fill="none" stroke="#000" d="M1200.398,-946.7038C1191.5738,-838.2489 1145.9125,-277.0404 1137.0784,-168.4637"/></g><g id="node8" class="node"><title>0001</title><ellipse cx="1441.467" cy="-253.17" fill="none" stroke="#000" rx="30.201" ry="18"/><text x="1441.467" y="-248.97" fill="#000" font-family="Times,serif" font-size="14" text-anchor="middle">0001</text></g><g id="edge7" class="edge"><title>0000--0001</title><path fill="none" stroke="#000" d="M1207.9176,-946.9115C1241.2297,-847.9602 1402.1707,-369.8969 1435.4412,-271.0696"/></g><g id="node9" class="node"><title>0009</title><ellipse cx="1656.015" cy="-366.809" fill="none" stroke="#000" rx="30.201" ry="18"/><text x="1656.015" y="-362.609" fill="#000" font-family="Times,serif" font-size="14" text-anchor="middle">0009</text></g><g id="edge8" class="edge"><title>0000--0009</title><path fill="none" stroke="#000" d="M1214.4955,-948.2404C1279.7484,-862.3097 1578.3483,-469.0875 1643.4556,-383.3486"/></g><g id="node10" class="node"><title>2000</title><ellipse cx="1649.544" cy="-796.64" fill="none" stroke="#000" rx="30.201" ry="18"/><text x="1649.544" y="-792.44" fill="#000" font-family="Times,serif" font-size="14" text-anchor="middle">2000</text></g><g id="edge9" class="edge"><title>1000--2000</title><path fill="none" stroke="silver" d="M1994.9115,-953.8225C1927.9388,-923.342 1740.9646,-838.2467 1673.8853,-807.7177"/></g><g id="node11" class="node"><title>1100</title><ellipse cx="1968.088" cy="-561.986" fill="none" stroke="#000" rx="30.201" ry="18"/><text x="1968.088" y="-557.786" fill="#000" font-family="Times,serif" font-size="14" text-anchor="middle">1100</text></g><g id="edge10" class="edge"><title>1000--1100</title><path fill="none" stroke="silver" d="M2016.8693,-946.7666C2008.3867,-879.8575 1978.8472,-646.8559 1970.375,-580.0294"/></g><g id="node12" class="node"><title>1900</title><ellipse cx="2325.381" cy="-698.127" fill="none" stroke="#000" rx="30.201" ry="18"/><text x="2325.381" y="-693.927" fill="#000" font-family="Times,serif" font-size="14" text-anchor="middle">1900</text></g><g id="edge11" class="edge"><title>1000--1900</title><path fill="none" stroke="silver" d="M2036.5042,-949.7549C2090.4019,-902.8069 2254.5931,-759.7871 2308.2304,-713.0659"/></g><g id="node13" class="node"><title>1010</title><ellipse cx="2411.222" cy="-1070.718" fill="none" stroke="#000" rx="30.201" ry="18"/><text x="2411.222" y="-1066.518" fill="#000" font-family="Times,serif" font-size="14" text-anchor="middle">1010</text></g><g id="edge12" class="edge"><title>1000--1010</title><path fill="none" stroke="silver" d="M2047.0448,-972.3881C2119.2076,-991.8725 2311.478,-1043.7866 2383.4827,-1063.2282"/></g><g id="node14" class="node"><title>1090</title><ellipse cx="2149.515" cy="-1349.469" fill="none" stroke="#000" rx="30.201" ry="18"/><text x="2149.515" y="-1345.27" fill="#000" font-family="Times,serif" font-size="14" text-anchor="middle">1090</text></g><g id="edge13" class="edge"><title>1000--1090</title><path fill="none" stroke="silver" d="M2025.1889,-982.6391C2046.9697,-1046.9044 2121.4832,-1266.7603 2143.4028,-1331.4354"/></g><g id="node15" class="node"><title>1001</title><ellipse cx="1859.223" cy="-1264.606" fill="none" stroke="#000" rx="30.201" ry="18"/><text x="1859.223" y="-1260.406" fill="#000" font-family="Times,serif" font-size="14" text-anchor="middle">1001</text></g><g id="edge14" class="edge"><title>1000--1001</title><path fill="none" stroke="silver" d="M2009.8728,-982.2712C1981.6045,-1035.249 1896.8409,-1194.1052 1868.5385,-1247.147"/></g><g id="node16" class="node"><title>1009</title><ellipse cx="1709.935" cy="-1105.595" fill="none" stroke="#000" rx="30.201" ry="18"/><text x="1709.935" y="-1101.396" fill="#000" font-family="Times,serif" font-size="14" text-anchor="middle">1009</text></g><g id="edge15" class="edge"><title>1000--1009</title><path fill="none" stroke="silver" d="M1994.8985,-975.9032C1937.0929,-1002.2116 1791.7781,-1068.347 1734.0864,-1094.6035"/></g><g id="node17" class="node"><title>8000</title><ellipse cx="1393.52" cy="-1403.013" fill="none" stroke="#000" rx="30.201" ry="18"/><text x="1393.52" y="-1398.813" fill="#000" font-family="Times,serif" font-size="14" text-anchor="middle">8000</text></g><g id="edge16" class="edge"><title>9000--8000</title><path fill="none" stroke="silver" d="M1252.031,-1763.2813C1276.9663,-1699.7894 1361.6631,-1484.1293 1386.5744,-1420.6987"/></g><g id="node18" class="node"><title>9100</title><ellipse cx="1644.681" cy="-1708.709" fill="none" stroke="#000" rx="30.201" ry="18"/><text x="1644.681" y="-1704.509" fill="#000" font-family="Times,serif" font-size="14" text-anchor="middle">9100</text></g><g id="edge17" class="edge"><title>9000--9100</title><path fill="none" stroke="silver" d="M1274.131,-1775.748C1347.8586,-1762.4094 1541.5585,-1727.3657 1615.46,-1713.9956"/></g><g id="node19" class="node"><title>9900</title><ellipse cx="1527.615" cy="-2072.698" fill="none" stroke="#000" rx="30.201" ry="18"/><text x="1527.615" y="-2068.499" fill="#000" font-family="Times,serif" font-size="14" text-anchor="middle">9900</text></g><g id="edge18" class="edge"><title>9000--9900</title><path fill="none" stroke="silver" d="M1260.2609,-1796.6883C1309.3199,-1847.3358 1463.1829,-2006.1806 1512.3487,-2056.9383"/></g><g id="node20" class="node"><title>9010</title><ellipse cx="1160.081" cy="-2178.111" fill="none" stroke="#000" rx="30.201" ry="18"/><text x="1160.081" y="-2173.911" fill="#000" font-family="Times,serif" font-size="14" text-anchor="middle">9010</text></g><g id="edge19" class="edge"><title>9000--9010</title><path fill="none" stroke="silver" d="M1241.1974,-1799.1004C1227.039,-1865.2544 1178.1717,-2093.583 1163.9761,-2159.9104"/></g><g id="node21" class="node"><title>9090</title><ellipse cx="867.887" cy="-1931.502" fill="none" stroke="#000" rx="30.201" ry="18"/><text x="867.887" y="-1927.302" fill="#000" font-family="Times,serif" font-size="14" text-anchor="middle">9090</text></g><g id="edge20" class="edge"><title>9000--9090</title><path fill="none" stroke="silver" d="M1219.7363,-1791.1139C1151.024,-1818.5302 961.6938,-1894.0734 893.1107,-1921.4382"/></g><g id="node22" class="node"><title>9001</title><ellipse cx="937.289" cy="-1637.13" fill="none" stroke="#000" rx="30.201" ry="18"/><text x="937.289" y="-1632.93" fill="#000" font-family="Times,serif" font-size="14" text-anchor="middle">9001</text></g><g id="edge21" class="edge"><title>9000--9001</title><path fill="none" stroke="silver" d="M1221.1751,-1769.8357C1163.8321,-1743.0301 1018.9244,-1675.2916 961.3814,-1648.3925"/></g><g id="node23" class="node"><title>9009</title><ellipse cx="1088.188" cy="-1479.647" fill="none" stroke="#000" rx="30.201" ry="18"/><text x="1088.188" y="-1475.447" fill="#000" font-family="Times,serif" font-size="14" text-anchor="middle">9009</text></g><g id="edge22" class="edge"><title>9000--9009</title><path fill="none" stroke="silver" d="M1235.9573,-1763.5008C1208.2296,-1710.238 1125.087,-1550.5275 1097.3259,-1497.2004"/></g><g id="node24" class="node"><title>0200</title><ellipse cx="678.53" cy="-1264.588" fill="none" stroke="#000" rx="30.201" ry="18"/><text x="678.53" y="-1260.388" fill="#000" font-family="Times,serif" font-size="14" text-anchor="middle">0200</text></g><g id="edge23" class="edge"><title>0100--0200</title><path fill="none" stroke="silver" d="M448.8614,-1210.3542C498.6429,-1222.1096 600.5706,-1246.1787 650.166,-1257.8902"/></g><g id="node25" class="node"><title>0110</title><ellipse cx="362.901" cy="-1462.729" fill="none" stroke="#000" rx="30.201" ry="18"/><text x="362.901" y="-1458.529" fill="#000" font-family="Times,serif" font-size="14" text-anchor="middle">0110</text></g><g id="edge24" class="edge"><title>0100--0110</title><path fill="none" stroke="silver" d="M416.2007,-1221.8156C405.6488,-1269.5103 377.3128,-1397.5887 366.852,-1444.8714"/></g><g id="node26" class="node"><title>0190</title><ellipse cx="160.311" cy="-1149.938" fill="none" stroke="#000" rx="30.201" ry="18"/><text x="160.311" y="-1145.737" fill="#000" font-family="Times,serif" font-size="14" text-anchor="middle">0190</text></g><g id="edge25" class="edge"><title>0100--0190</title><path fill="none" stroke="silver" d="M391.4229,-1197.6465C341.4607,-1187.3327 239.3011,-1166.2436 189.2492,-1155.9113"/></g><g id="node27" class="node"><title>0101</title><ellipse cx="408.18" cy="-1004.908" fill="none" stroke="#000" rx="30.201" ry="18"/><text x="408.18" y="-1000.708" fill="#000" font-family="Times,serif" font-size="14" text-anchor="middle">0101</text></g><g id="edge26" class="edge"><title>0100--0101</title><path fill="none" stroke="silver" d="M419.1199,-1185.2579C416.818,-1147.3114 411.5564,-1060.5729 409.2719,-1022.9122"/></g><g id="node28" class="node"><title>0109</title><ellipse cx="600.372" cy="-1008.689" fill="none" stroke="#000" rx="30.201" ry="18"/><text x="600.372" y="-1004.489" fill="#000" font-family="Times,serif" font-size="14" text-anchor="middle">0109</text></g><g id="edge27" class="edge"><title>0100--0109</title><path fill="none" stroke="silver" d="M434.9737,-1187.6439C468.8373,-1151.0048 551.8631,-1061.174 585.6792,-1024.5863"/></g><g id="node29" class="node"><title>0800</title><ellipse cx="545.726" cy="-682.808" fill="none" stroke="#000" rx="30.201" ry="18"/><text x="545.726" y="-678.608" fill="#000" font-family="Times,serif" font-size="14" text-anchor="middle">0800</text></g><g id="edge28" class="edge"><title>0900--0800</title><path fill="none" stroke="silver" d="M498.7526,-579.5888C509.1737,-602.4882 527.2976,-642.3143 537.7234,-665.2242"/></g><g id="node30" class="node"><title>0910</title><ellipse cx="392.875" cy="-651.625" fill="none" stroke="#000" rx="30.201" ry="18"/><text x="392.875" y="-647.425" fill="#000" font-family="Times,serif" font-size="14" text-anchor="middle">0910</text></g><g id="edge29" class="edge"><title>0900--0910</title><path fill="none" stroke="silver" d="M474.1553,-577.2252C456.1554,-593.7014 427.5929,-619.8458 409.5612,-636.351"/></g><g id="node31" class="node"><title>0990</title><ellipse cx="375.298" cy="-496.619" fill="none" stroke="#000" rx="30.201" ry="18"/><text x="375.298" y="-492.419" fill="#000" font-family="Times,serif" font-size="14" text-anchor="middle">0990</text></g><g id="edge30" class="edge"><title>0900--0990</title><path fill="none" stroke="silver" d="M468.771,-549.5695C448.3568,-538.0053 418.1125,-520.8724 397.5991,-509.2519"/></g><g id="node32" class="node"><title>0901</title><ellipse cx="517.286" cy="-432.003" fill="none" stroke="#000" rx="30.201" ry="18"/><text x="517.286" y="-427.803" fill="#000" font-family="Times,serif" font-size="14" text-anchor="middle">0901</text></g><g id="edge31" class="edge"><title>0900--0901</title><path fill="none" stroke="silver" d="M494.4486,-543.947C499.5164,-519.1058 508.5779,-474.6892 513.6293,-449.929"/></g><g id="node33" class="node"><title>0909</title><ellipse cx="622.616" cy="-547.075" fill="none" stroke="#000" rx="30.201" ry="18"/><text x="622.616" y="-542.875" fill="#000" font-family="Times,serif" font-size="14" text-anchor="middle">0909</text></g><g id="edge32" class="edge"><title>0900--0909</title><path fill="none" stroke="silver" d="M520.6803,-558.6333C542.1074,-556.2037 570.8544,-552.944 592.3579,-550.5057"/></g><g id="node34" class="node"><title>0020</title><ellipse cx="700.87" cy="-393.801" fill="none" stroke="#000" rx="30.201" ry="18"/><text x="700.87" y="-389.601" fill="#000" font-family="Times,serif" font-size="14" text-anchor="middle">0020</text></g><g id="edge33" class="edge"><title>0010--0020</title><path fill="none" stroke="silver" d="M752.9979,-293.4067C741.4364,-315.6734 721.5098,-354.0508 709.9304,-376.3518"/></g><g id="node35" class="node"><title>0011</title><ellipse cx="690.603" cy="-164.186" fill="none" stroke="#000" rx="30.201" ry="18"/><text x="690.603" y="-159.986" fill="#000" font-family="Times,serif" font-size="14" text-anchor="middle">0011</text></g><g id="edge34" class="edge"><title>0010--0011</title><path fill="none" stroke="silver" d="M751.174,-259.0425C737.7507,-238.021 715.0222,-202.4272 701.5519,-181.3321"/></g><g id="node36" class="node"><title>0019</title><ellipse cx="894.589" cy="-270.101" fill="none" stroke="#000" rx="30.201" ry="18"/><text x="894.589" y="-265.901" fill="#000" font-family="Times,serif" font-size="14" text-anchor="middle">0019</text></g><g id="edge35" class="edge"><title>0010--0019</title><path fill="none" stroke="silver" d="M792.4347,-274.6692C813.9916,-273.7052 842.7918,-272.4174 864.3169,-271.4548"/></g><g id="node37" class="node"><title>0080</title><ellipse cx="1026.435" cy="-225.715" fill="none" stroke="#000" rx="30.201" ry="18"/><text x="1026.435" y="-221.515" fill="#000" font-family="Times,serif" font-size="14" text-anchor="middle">0080</text></g><g id="edge36" class="edge"><title>0090--0080</title><path fill="none" stroke="silver" d="M1115.829,-163.9274C1096.1679,-177.5168 1066.1635,-198.2553 1046.425,-211.8982"/></g><g id="node38" class="node"><title>0091</title><ellipse cx="1124.836" cy="-18" fill="none" stroke="#000" rx="30.201" ry="18"/><text x="1124.836" y="-13.8" fill="#000" font-family="Times,serif" font-size="14" text-anchor="middle">0091</text></g><g id="edge37" class="edge"><title>0090--0091</title><path fill="none" stroke="silver" d="M1134.1239,-132.1504C1132.0746,-106.9636 1128.385,-61.6151 1126.3268,-36.3191"/></g><g id="node39" class="node"><title>0099</title><ellipse cx="1255.522" cy="-207.076" fill="none" stroke="#000" rx="30.201" ry="18"/><text x="1255.522" y="-202.876" fill="#000" font-family="Times,serif" font-size="14" text-anchor="middle">0099</text></g><g id="edge38" class="edge"><title>0090--0099</title><path fill="none" stroke="silver" d="M1159.5779,-161.624C1180.4941,-171.5327 1210.6795,-185.8326 1231.5834,-195.7355"/></g><g id="node40" class="node"><title>0002</title><ellipse cx="1483.806" cy="-127.404" fill="none" stroke="#000" rx="30.201" ry="18"/><text x="1483.806" y="-123.204" fill="#000" font-family="Times,serif" font-size="14" text-anchor="middle">0002</text></g><g id="edge39" class="edge"><title>0001--0002</title><path fill="none" stroke="silver" d="M1447.4436,-235.4174C1455.5128,-211.4482 1469.8068,-168.9891 1477.8604,-145.0665"/></g><g id="node41" class="node"><title>0008</title><ellipse cx="1736.267" cy="-261.126" fill="none" stroke="#000" rx="30.201" ry="18"/><text x="1736.267" y="-256.926" fill="#000" font-family="Times,serif" font-size="14" text-anchor="middle">0008</text></g><g id="edge40" class="edge"><title>0009--0008</title><path fill="none" stroke="silver" d="M1668.5544,-350.2964C1683.5429,-330.5581 1708.4849,-297.7124 1723.5512,-277.8717"/></g><g id="node42" class="node"><title>3000</title><ellipse cx="1744.207" cy="-910.199" fill="none" stroke="#000" rx="30.201" ry="18"/><text x="1744.207" y="-905.999" fill="#000" font-family="Times,serif" font-size="14" text-anchor="middle">3000</text></g><g id="edge41" class="edge"><title>2000--3000</title><path fill="none" stroke="silver" d="M1663.1072,-812.9099C1681.1025,-834.4974 1712.6866,-872.3862 1730.6693,-893.9585"/></g><g id="node43" class="node"><title>2100</title><ellipse cx="1619.782" cy="-941.453" fill="none" stroke="#000" rx="30.201" ry="18"/><text x="1619.782" y="-937.253" fill="#000" font-family="Times,serif" font-size="14" text-anchor="middle">2100</text></g><g id="edge42" class="edge"><title>2000--2100</title><path fill="none" stroke="silver" d="M1645.835,-814.6876C1640.1317,-842.4376 1629.269,-895.291 1623.5376,-923.1774"/></g><g id="node44" class="node"><title>2900</title><ellipse cx="1517.768" cy="-863.66" fill="none" stroke="#000" rx="30.201" ry="18"/><text x="1517.768" y="-859.46" fill="#000" font-family="Times,serif" font-size="14" text-anchor="middle">2900</text></g><g id="edge43" class="edge"><title>2000--2900</title><path fill="none" stroke="silver" d="M1626.2887,-808.4673C1602.3492,-820.6426 1565.2509,-839.5105 1541.2345,-851.725"/></g><g id="node45" class="node"><title>2010</title><ellipse cx="1514.985" cy="-735.399" fill="none" stroke="#000" rx="30.201" ry="18"/><text x="1514.985" y="-731.199" fill="#000" font-family="Times,serif" font-size="14" text-anchor="middle">2010</text></g><g id="edge44" class="edge"><title>2000--2010</title><path fill="none" stroke="silver" d="M1625.1766,-785.5495C1600.7899,-774.4507 1563.4937,-757.4765 1539.1713,-746.4069"/></g><g id="node46" class="node"><title>2090</title><ellipse cx="1613.528" cy="-653.254" fill="none" stroke="#000" rx="30.201" ry="18"/><text x="1613.528" y="-649.054" fill="#000" font-family="Times,serif" font-size="14" text-anchor="middle">2090</text></g><g id="edge45" class="edge"><title>2000--2090</title><path fill="none" stroke="silver" d="M1645.0556,-778.7697C1638.1538,-751.2932 1625.0086,-698.9608 1618.0729,-671.3493"/></g><g id="node47" class="node"><title>2001</title><ellipse cx="1739.192" cy="-679.081" fill="none" stroke="#000" rx="30.201" ry="18"/><text x="1739.192" y="-674.881" fill="#000" font-family="Times,serif" font-size="14" text-anchor="middle">2001</text></g><g id="edge46" class="edge"><title>2000--2001</title><path fill="none" stroke="silver" d="M1662.1985,-780.0458C1679.284,-757.6407 1709.5495,-717.9523 1726.6019,-695.5907"/></g><g id="node48" class="node"><title>2009</title><ellipse cx="1797.349" cy="-793.432" fill="none" stroke="#000" rx="30.201" ry="18"/><text x="1797.349" y="-789.232" fill="#000" font-family="Times,serif" font-size="14" text-anchor="middle">2009</text></g><g id="edge47" class="edge"><title>2000--2009</title><path fill="none" stroke="silver" d="M1680.1696,-795.9751C1705.6212,-795.4228 1741.6464,-794.641 1767.0166,-794.0905"/></g><g id="node49" class="node"><title>1200</title><ellipse cx="1904.21" cy="-678.301" fill="none" stroke="#000" rx="30.201" ry="18"/><text x="1904.21" y="-674.101" fill="#000" font-family="Times,serif" font-size="14" text-anchor="middle">1200</text></g><g id="edge48" class="edge"><title>1100--1200</title><path fill="none" stroke="silver" d="M1958.6622,-579.1486C1946.585,-601.1399 1925.7696,-639.0426 1913.6739,-661.0677"/></g><g id="node50" class="node"><title>1110</title><ellipse cx="1837.726" cy="-537.178" fill="none" stroke="#000" rx="30.201" ry="18"/><text x="1837.726" y="-532.978" fill="#000" font-family="Times,serif" font-size="14" text-anchor="middle">1110</text></g><g id="edge49" class="edge"><title>1100--1110</title><path fill="none" stroke="silver" d="M1939.1561,-556.4803C1917.7031,-552.3977 1888.5682,-546.8533 1867.0276,-542.754"/></g><g id="node51" class="node"><title>1190</title><ellipse cx="1951.398" cy="-430.339" fill="none" stroke="#000" rx="30.201" ry="18"/><text x="1951.398" y="-426.139" fill="#000" font-family="Times,serif" font-size="14" text-anchor="middle">1190</text></g><g id="edge50" class="edge"><title>1100--1190</title><path fill="none" stroke="silver" d="M1965.8019,-543.957C1962.6236,-518.8877 1956.9012,-473.7506 1953.7092,-448.5726"/></g><g id="node52" class="node"><title>1101</title><ellipse cx="2088.134" cy="-505.432" fill="none" stroke="#000" rx="30.201" ry="18"/><text x="2088.134" y="-501.232" fill="#000" font-family="Times,serif" font-size="14" text-anchor="middle">1101</text></g><g id="edge51" class="edge"><title>1100--1101</title><path fill="none" stroke="silver" d="M1992.0922,-550.6773C2013.0296,-540.8136 2043.2457,-526.5787 2064.1708,-516.7208"/></g><g id="node53" class="node"><title>1109</title><ellipse cx="2058.97" cy="-658.681" fill="none" stroke="#000" rx="30.201" ry="18"/><text x="2058.97" y="-654.481" fill="#000" font-family="Times,serif" font-size="14" text-anchor="middle">1109</text></g><g id="edge52" class="edge"><title>1100--1109</title><path fill="none" stroke="silver" d="M1983.095,-577.9531C1999.9341,-595.8691 2027.0923,-624.764 2043.9405,-642.6897"/></g><g id="node54" class="node"><title>1800</title><ellipse cx="2193.197" cy="-709.825" fill="none" stroke="#000" rx="30.201" ry="18"/><text x="2193.197" y="-705.625" fill="#000" font-family="Times,serif" font-size="14" text-anchor="middle">1800</text></g><g id="edge53" class="edge"><title>1900--1800</title><path fill="none" stroke="silver" d="M2295.0555,-700.8105C2273.5611,-702.7129 2244.8444,-705.2544 2223.3817,-707.1539"/></g><g id="node55" class="node"><title>1910</title><ellipse cx="2273.408" cy="-576.027" fill="none" stroke="#000" rx="30.201" ry="18"/><text x="2273.408" y="-571.827" fill="#000" font-family="Times,serif" font-size="14" text-anchor="middle">1910</text></g><g id="edge54" class="edge"><title>1900--1910</title><path fill="none" stroke="silver" d="M2317.9347,-680.6327C2308.0546,-657.4216 2290.7137,-616.6833 2280.8405,-593.4886"/></g><g id="node56" class="node"><title>1990</title><ellipse cx="2425.444" cy="-610.966" fill="none" stroke="#000" rx="30.201" ry="18"/><text x="2425.444" y="-606.766" fill="#000" font-family="Times,serif" font-size="14" text-anchor="middle">1990</text></g><g id="edge55" class="edge"><title>1900--1990</title><path fill="none" stroke="silver" d="M2342.8108,-682.9444C2361.1767,-666.9467 2389.924,-641.9062 2408.2141,-625.9744"/></g><g id="node57" class="node"><title>1901</title><ellipse cx="2439.197" cy="-766.358" fill="none" stroke="#000" rx="30.201" ry="18"/><text x="2439.197" y="-762.158" fill="#000" font-family="Times,serif" font-size="14" text-anchor="middle">1901</text></g><g id="edge56" class="edge"><title>1900--1901</title><path fill="none" stroke="silver" d="M2346.789,-710.9604C2367.0087,-723.0819 2397.1835,-741.1714 2417.498,-753.3497"/></g><g id="node58" class="node"><title>1909</title><ellipse cx="2295.66" cy="-827.456" fill="none" stroke="#000" rx="30.201" ry="18"/><text x="2295.66" y="-823.256" fill="#000" font-family="Times,serif" font-size="14" text-anchor="middle">1909</text></g><g id="edge57" class="edge"><title>1900--1909</title><path fill="none" stroke="silver" d="M2321.2486,-716.1093C2315.6023,-740.6793 2305.5315,-784.5022 2299.8536,-809.2093"/></g><g id="node59" class="node"><title>1020</title><ellipse cx="2377.122" cy="-942.473" fill="none" stroke="#000" rx="30.201" ry="18"/><text x="2377.122" y="-938.273" fill="#000" font-family="Times,serif" font-size="14" text-anchor="middle">1020</text></g><g id="edge58" class="edge"><title>1010--1020</title><path fill="none" stroke="silver" d="M2406.4807,-1052.8861C2400.0025,-1028.5223 2388.4479,-985.067 2381.9336,-960.5671"/></g><g id="node60" class="node"><title>1011</title><ellipse cx="2539.335" cy="-1105.309" fill="none" stroke="#000" rx="30.201" ry="18"/><text x="2539.335" y="-1101.109" fill="#000" font-family="Times,serif" font-size="14" text-anchor="middle">1011</text></g><g id="edge59" class="edge"><title>1010--1011</title><path fill="none" stroke="silver" d="M2439.0207,-1078.2238C2460.5096,-1084.0259 2490.1156,-1092.0197 2511.5908,-1097.8181"/></g><g id="node61" class="node"><title>1019</title><ellipse cx="2317.209" cy="-1164.371" fill="none" stroke="#000" rx="30.201" ry="18"/><text x="2317.209" y="-1160.171" fill="#000" font-family="Times,serif" font-size="14" text-anchor="middle">1019</text></g><g id="edge60" class="edge"><title>1010--1019</title><path fill="none" stroke="silver" d="M2395.274,-1086.6051C2377.8813,-1103.9312 2350.2206,-1131.486 2332.9213,-1148.7191"/></g><g id="node62" class="node"><title>1080</title><ellipse cx="2237.059" cy="-1249.742" fill="none" stroke="#000" rx="30.201" ry="18"/><text x="2237.059" y="-1245.542" fill="#000" font-family="Times,serif" font-size="14" text-anchor="middle">1080</text></g><g id="edge61" class="edge"><title>1090--1080</title><path fill="none" stroke="silver" d="M2163.5803,-1333.4466C2179.9169,-1314.8363 2206.7063,-1284.3183 2223.028,-1265.725"/></g><g id="node63" class="node"><title>1091</title><ellipse cx="2192.11" cy="-1475.148" fill="none" stroke="#000" rx="30.201" ry="18"/><text x="2192.11" y="-1470.948" fill="#000" font-family="Times,serif" font-size="14" text-anchor="middle">1091</text></g><g id="edge62" class="edge"><title>1090--1091</title><path fill="none" stroke="silver" d="M2155.5274,-1367.2097C2163.6455,-1391.1624 2178.0258,-1433.5923 2186.1281,-1457.4985"/></g><g id="node64" class="node"><title>1099</title><ellipse cx="2019.376" cy="-1323.518" fill="none" stroke="#000" rx="30.201" ry="18"/><text x="2019.376" y="-1319.319" fill="#000" font-family="Times,serif" font-size="14" text-anchor="middle">1099</text></g><g id="edge63" class="edge"><title>1090--1099</title><path fill="none" stroke="silver" d="M2120.633,-1343.7102C2099.0668,-1339.4096 2069.7244,-1333.5584 2048.1776,-1329.2618"/></g><g id="node65" class="node"><title>1002</title><ellipse cx="1796.752" cy="-1381.683" fill="none" stroke="#000" rx="30.201" ry="18"/><text x="1796.752" y="-1377.483" fill="#000" font-family="Times,serif" font-size="14" text-anchor="middle">1002</text></g><g id="edge64" class="edge"><title>1001--1002</title><path fill="none" stroke="silver" d="M1850.0047,-1281.8813C1838.1936,-1304.0166 1817.8368,-1342.1676 1806.0075,-1364.3369"/></g><g id="node66" class="node"><title>1008</title><ellipse cx="1589.154" cy="-1160.565" fill="none" stroke="#000" rx="30.201" ry="18"/><text x="1589.154" y="-1156.365" fill="#000" font-family="Times,serif" font-size="14" text-anchor="middle">1008</text></g><g id="edge65" class="edge"><title>1009--1008</title><path fill="none" stroke="silver" d="M1685.7831,-1116.5872C1664.7176,-1126.1745 1634.3168,-1140.0105 1613.2637,-1149.5921"/></g><g id="node67" class="node"><title>7000</title><ellipse cx="1285.123" cy="-1503.545" fill="none" stroke="#000" rx="30.201" ry="18"/><text x="1285.123" y="-1499.345" fill="#000" font-family="Times,serif" font-size="14" text-anchor="middle">7000</text></g><g id="edge66" class="edge"><title>8000--7000</title><path fill="none" stroke="silver" d="M1377.0571,-1418.2814C1356.6833,-1437.1769 1322.1863,-1469.1708 1301.7413,-1488.1324"/></g><g id="node68" class="node"><title>8100</title><ellipse cx="1247.337" cy="-1380.945" fill="none" stroke="#000" rx="30.201" ry="18"/><text x="1247.337" y="-1376.745" fill="#000" font-family="Times,serif" font-size="14" text-anchor="middle">8100</text></g><g id="edge67" class="edge"><title>8000--8100</title><path fill="none" stroke="silver" d="M1363.9378,-1398.547C1338.5756,-1394.7184 1302.2245,-1389.2309 1276.8751,-1385.4042"/></g><g id="node69" class="node"><title>8900</title><ellipse cx="1319.629" cy="-1274.963" fill="none" stroke="#000" rx="30.201" ry="18"/><text x="1319.629" y="-1270.763" fill="#000" font-family="Times,serif" font-size="14" text-anchor="middle">8900</text></g><g id="edge68" class="edge"><title>8000--8900</title><path fill="none" stroke="silver" d="M1383.555,-1385.7433C1369.4524,-1361.3041 1343.8177,-1316.8803 1329.6727,-1292.3675"/></g><g id="node70" class="node"><title>8010</title><ellipse cx="1447.563" cy="-1265.405" fill="none" stroke="#000" rx="30.201" ry="18"/><text x="1447.563" y="-1261.205" fill="#000" font-family="Times,serif" font-size="14" text-anchor="middle">8010</text></g><g id="edge69" class="edge"><title>8000--8010</title><path fill="none" stroke="silver" d="M1400.4748,-1385.3046C1410.8518,-1358.8821 1430.2741,-1309.4278 1440.6356,-1283.0448"/></g><g id="node71" class="node"><title>8090</title><ellipse cx="1534.802" cy="-1359.468" fill="none" stroke="#000" rx="30.201" ry="18"/><text x="1534.802" y="-1355.268" fill="#000" font-family="Times,serif" font-size="14" text-anchor="middle">8090</text></g><g id="edge70" class="edge"><title>8000--8090</title><path fill="none" stroke="silver" d="M1420.7608,-1394.6169C1445.7786,-1386.9061 1482.6537,-1375.5408 1507.645,-1367.8382"/></g><g id="node72" class="node"><title>8001</title><ellipse cx="1515.652" cy="-1486.322" fill="none" stroke="#000" rx="30.201" ry="18"/><text x="1515.652" y="-1482.122" fill="#000" font-family="Times,serif" font-size="14" text-anchor="middle">8001</text></g><g id="edge71" class="edge"><title>8000--8001</title><path fill="none" stroke="silver" d="M1413.6879,-1416.7695C1436.317,-1432.2053 1472.8135,-1457.1002 1495.4548,-1472.5444"/></g><g id="node73" class="node"><title>8009</title><ellipse cx="1404.535" cy="-1550.442" fill="none" stroke="#000" rx="30.201" ry="18"/><text x="1404.535" y="-1546.242" fill="#000" font-family="Times,serif" font-size="14" text-anchor="middle">8009</text></g><g id="edge72" class="edge"><title>8000--8009</title><path fill="none" stroke="silver" d="M1394.8709,-1421.0904C1396.9849,-1449.386 1401.0525,-1503.8298 1403.1733,-1532.2162"/></g><g id="node74" class="node"><title>9200</title><ellipse cx="1525.153" cy="-1651.068" fill="none" stroke="#000" rx="30.201" ry="18"/><text x="1525.153" y="-1646.868" fill="#000" font-family="Times,serif" font-size="14" text-anchor="middle">9200</text></g><g id="edge73" class="edge"><title>9100--9200</title><path fill="none" stroke="silver" d="M1621.0666,-1697.3209C1600.1116,-1687.2156 1569.6592,-1672.5304 1548.7191,-1662.4322"/></g><g id="node75" class="node"><title>9110</title><ellipse cx="1662.565" cy="-1577.219" fill="none" stroke="#000" rx="30.201" ry="18"/><text x="1662.565" y="-1573.019" fill="#000" font-family="Times,serif" font-size="14" text-anchor="middle">9110</text></g><g id="edge74" class="edge"><title>9100--9110</title><path fill="none" stroke="silver" d="M1647.1306,-1690.7015C1650.5362,-1665.662 1656.6678,-1620.5787 1660.0882,-1595.4306"/></g><g id="node76" class="node"><title>9190</title><ellipse cx="1775.263" cy="-1685.084" fill="none" stroke="#000" rx="30.201" ry="18"/><text x="1775.263" y="-1680.884" fill="#000" font-family="Times,serif" font-size="14" text-anchor="middle">9190</text></g><g id="edge75" class="edge"><title>9100--9190</title><path fill="none" stroke="silver" d="M1673.9864,-1703.4071C1695.4921,-1699.5164 1724.5727,-1694.2552 1746.0554,-1690.3686"/></g><g id="node77" class="node"><title>9101</title><ellipse cx="1707.501" cy="-1825.599" fill="none" stroke="#000" rx="30.201" ry="18"/><text x="1707.501" y="-1821.399" fill="#000" font-family="Times,serif" font-size="14" text-anchor="middle">9101</text></g><g id="edge76" class="edge"><title>9100--9101</title><path fill="none" stroke="silver" d="M1653.9508,-1725.9564C1665.8279,-1748.0563 1686.2986,-1786.1463 1698.1941,-1808.2802"/></g><g id="node78" class="node"><title>9109</title><ellipse cx="1552.925" cy="-1804.575" fill="none" stroke="#000" rx="30.201" ry="18"/><text x="1552.925" y="-1800.375" fill="#000" font-family="Times,serif" font-size="14" text-anchor="middle">9109</text></g><g id="edge77" class="edge"><title>9100--9109</title><path fill="none" stroke="silver" d="M1629.5298,-1724.5393C1612.5289,-1742.3017 1585.1097,-1770.9491 1568.0995,-1788.7212"/></g><g id="node79" class="node"><title>9800</title><ellipse cx="1508.946" cy="-1941.317" fill="none" stroke="#000" rx="30.201" ry="18"/><text x="1508.946" y="-1937.117" fill="#000" font-family="Times,serif" font-size="14" text-anchor="middle">9800</text></g><g id="edge78" class="edge"><title>9900--9800</title><path fill="none" stroke="silver" d="M1525.058,-2054.706C1521.503,-2029.6873 1515.1022,-1984.6414 1511.5317,-1959.5142"/></g><g id="node80" class="node"><title>9910</title><ellipse cx="1646.796" cy="-2014.345" fill="none" stroke="#000" rx="30.201" ry="18"/><text x="1646.796" y="-2010.145" fill="#000" font-family="Times,serif" font-size="14" text-anchor="middle">9910</text></g><g id="edge79" class="edge"><title>9900--9910</title><path fill="none" stroke="silver" d="M1551.1611,-2061.1696C1572.0554,-2050.9394 1602.4195,-2036.0725 1623.2989,-2025.8495"/></g><g id="node81" class="node"><title>9990</title><ellipse cx="1619.942" cy="-2168.015" fill="none" stroke="#000" rx="30.201" ry="18"/><text x="1619.942" y="-2163.815" fill="#000" font-family="Times,serif" font-size="14" text-anchor="middle">9990</text></g><g id="edge80" class="edge"><title>9900--9990</title><path fill="none" stroke="silver" d="M1542.8606,-2088.438C1559.9673,-2106.0986 1587.5571,-2134.5818 1604.6731,-2152.2519"/></g><g id="node82" class="node"><title>9901</title><ellipse cx="1465.494" cy="-2189.961" fill="none" stroke="#000" rx="30.201" ry="18"/><text x="1465.494" y="-2185.761" fill="#000" font-family="Times,serif" font-size="14" text-anchor="middle">9901</text></g><g id="edge81" class="edge"><title>9900--9901</title><path fill="none" stroke="silver" d="M1518.4485,-2090.001C1506.7036,-2112.1714 1486.4607,-2150.383 1474.6977,-2172.5876"/></g><g id="node83" class="node"><title>9909</title><ellipse cx="1396.895" cy="-2049.854" fill="none" stroke="#000" rx="30.201" ry="18"/><text x="1396.895" y="-2045.654" fill="#000" font-family="Times,serif" font-size="14" text-anchor="middle">9909</text></g><g id="edge82" class="edge"><title>9900--9909</title><path fill="none" stroke="silver" d="M1498.2786,-2067.5718C1476.7501,-2063.8096 1447.6385,-2058.7221 1426.1331,-2054.9639"/></g><g id="node84" class="node"><title>9020</title><ellipse cx="1286.344" cy="-2137.282" fill="none" stroke="#000" rx="30.201" ry="18"/><text x="1286.344" y="-2133.081" fill="#000" font-family="Times,serif" font-size="14" text-anchor="middle">9020</text></g><g id="edge83" class="edge"><title>9010--9020</title><path fill="none" stroke="silver" d="M1186.8579,-2169.4524C1208.2852,-2162.5235 1238.1883,-2152.8537 1259.6054,-2145.928"/></g><g id="node85" class="node"><title>9011</title><ellipse cx="1132.309" cy="-2307.874" fill="none" stroke="#000" rx="30.201" ry="18"/><text x="1132.309" y="-2303.674" fill="#000" font-family="Times,serif" font-size="14" text-anchor="middle">9011</text></g><g id="edge84" class="edge"><title>9010--9011</title><path fill="none" stroke="silver" d="M1156.2192,-2196.1543C1150.9133,-2220.9457 1141.4262,-2265.2733 1136.1376,-2289.9839"/></g><g id="node86" class="node"><title>9019</title><ellipse cx="1061.589" cy="-2089.179" fill="none" stroke="#000" rx="30.201" ry="18"/><text x="1061.589" y="-2084.979" fill="#000" font-family="Times,serif" font-size="14" text-anchor="middle">9019</text></g><g id="edge85" class="edge"><title>9010--9019</title><path fill="none" stroke="silver" d="M1143.373,-2163.0252C1125.2617,-2146.6717 1096.5224,-2120.7217 1078.3791,-2104.3393"/></g><g id="node87" class="node"><title>9080</title><ellipse cx="972.102" cy="-2013.653" fill="none" stroke="#000" rx="30.201" ry="18"/><text x="972.102" y="-2009.453" fill="#000" font-family="Times,serif" font-size="14" text-anchor="middle">9080</text></g><g id="edge86" class="edge"><title>9090--9080</title><path fill="none" stroke="silver" d="M886.5188,-1946.1893C905.488,-1961.1422 934.7214,-1984.1863 953.6321,-1999.0931"/></g><g id="node88" class="node"><title>9091</title><ellipse cx="744.635" cy="-1980.68" fill="none" stroke="#000" rx="30.201" ry="18"/><text x="744.635" y="-1976.48" fill="#000" font-family="Times,serif" font-size="14" text-anchor="middle">9091</text></g><g id="edge87" class="edge"><title>9090--9091</title><path fill="none" stroke="silver" d="M842.6479,-1941.5729C821.3788,-1950.0594 791.1004,-1962.1405 769.8408,-1970.6232"/></g><g id="node89" class="node"><title>9099</title><ellipse cx="886.924" cy="-1800.174" fill="none" stroke="#000" rx="30.201" ry="18"/><text x="886.924" y="-1795.974" fill="#000" font-family="Times,serif" font-size="14" text-anchor="middle">9099</text></g><g id="edge88" class="edge"><title>9090--9099</title><path fill="none" stroke="silver" d="M870.4943,-1913.5172C874.1194,-1888.5085 880.6464,-1843.4808 884.2873,-1818.3637"/></g><g id="node90" class="node"><title>9002</title><ellipse cx="817.075" cy="-1580.935" fill="none" stroke="#000" rx="30.201" ry="18"/><text x="817.075" y="-1576.735" fill="#000" font-family="Times,serif" font-size="14" text-anchor="middle">9002</text></g><g id="edge89" class="edge"><title>9001--9002</title><path fill="none" stroke="silver" d="M913.2512,-1625.8935C892.2844,-1616.0924 862.026,-1601.9478 841.0715,-1592.1524"/></g><g id="node91" class="node"><title>9008</title><ellipse cx="1026.912" cy="-1361.941" fill="none" stroke="#000" rx="30.201" ry="18"/><text x="1026.912" y="-1357.741" fill="#000" font-family="Times,serif" font-size="14" text-anchor="middle">9008</text></g><g id="edge90" class="edge"><title>9009--9008</title><path fill="none" stroke="silver" d="M1079.1465,-1462.2792C1067.5613,-1440.0249 1047.5937,-1401.6688 1035.9906,-1379.3801"/></g><g id="node92" class="node"><title>0300</title><ellipse cx="591.972" cy="-1164.004" fill="none" stroke="#000" rx="30.201" ry="18"/><text x="591.972" y="-1159.803" fill="#000" font-family="Times,serif" font-size="14" text-anchor="middle">0300</text></g><g id="edge91" class="edge"><title>0200--0300</title><path fill="none" stroke="silver" d="M664.6228,-1248.4274C648.4702,-1229.6572 621.9824,-1198.8771 605.8445,-1180.124"/></g><g id="node93" class="node"><title>0210</title><ellipse cx="747.443" cy="-1151.184" fill="none" stroke="#000" rx="30.201" ry="18"/><text x="747.443" y="-1146.984" fill="#000" font-family="Times,serif" font-size="14" text-anchor="middle">0210</text></g><g id="edge92" class="edge"><title>0200--0210</title><path fill="none" stroke="silver" d="M688.9964,-1247.3644C702.0243,-1225.9257 724.1359,-1189.5392 737.1043,-1168.1984"/></g><g id="node94" class="node"><title>0290</title><ellipse cx="807.679" cy="-1295.085" fill="none" stroke="#000" rx="30.201" ry="18"/><text x="807.679" y="-1290.885" fill="#000" font-family="Times,serif" font-size="14" text-anchor="middle">0290</text></g><g id="edge93" class="edge"><title>0200--0290</title><path fill="none" stroke="silver" d="M706.8721,-1271.2807C728.4052,-1276.3655 757.8857,-1283.3271 779.4025,-1288.408"/></g><g id="node95" class="node"><title>0201</title><ellipse cx="689.434" cy="-1396.84" fill="none" stroke="#000" rx="30.201" ry="18"/><text x="689.434" y="-1392.64" fill="#000" font-family="Times,serif" font-size="14" text-anchor="middle">0201</text></g><g id="edge94" class="edge"><title>0200--0201</title><path fill="none" stroke="silver" d="M680.0232,-1282.6998C682.0998,-1307.8843 685.8386,-1353.2288 687.9242,-1378.5226"/></g><g id="node96" class="node"><title>0209</title><ellipse cx="556.12" cy="-1315.827" fill="none" stroke="#000" rx="30.201" ry="18"/><text x="556.12" y="-1311.627" fill="#000" font-family="Times,serif" font-size="14" text-anchor="middle">0209</text></g><g id="edge95" class="edge"><title>0200--0209</title><path fill="none" stroke="silver" d="M653.4631,-1275.0806C632.3393,-1283.9228 602.268,-1296.5103 581.1537,-1305.3485"/></g><g id="node97" class="node"><title>0120</title><ellipse cx="489.443" cy="-1422.77" fill="none" stroke="#000" rx="30.201" ry="18"/><text x="489.443" y="-1418.57" fill="#000" font-family="Times,serif" font-size="14" text-anchor="middle">0120</text></g><g id="edge96" class="edge"><title>0110--0120</title><path fill="none" stroke="silver" d="M389.7374,-1454.2549C411.2119,-1447.4737 441.1809,-1438.0102 462.6453,-1431.2323"/></g><g id="node98" class="node"><title>0111</title><ellipse cx="334.236" cy="-1592.297" fill="none" stroke="#000" rx="30.201" ry="18"/><text x="334.236" y="-1588.097" fill="#000" font-family="Times,serif" font-size="14" text-anchor="middle">0111</text></g><g id="edge97" class="edge"><title>0110--0111</title><path fill="none" stroke="silver" d="M358.9153,-1480.7449C353.4387,-1505.4992 343.6464,-1549.7604 338.1876,-1574.434"/></g><g id="node99" class="node"><title>0119</title><ellipse cx="265.025" cy="-1373.12" fill="none" stroke="#000" rx="30.201" ry="18"/><text x="265.025" y="-1368.92" fill="#000" font-family="Times,serif" font-size="14" text-anchor="middle">0119</text></g><g id="edge98" class="edge"><title>0110--0119</title><path fill="none" stroke="silver" d="M346.2978,-1447.5282C328.2996,-1431.0502 299.7398,-1404.9028 281.7098,-1388.3957"/></g><g id="node100" class="node"><title>0180</title><ellipse cx="202.058" cy="-1275.901" fill="none" stroke="#000" rx="30.201" ry="18"/><text x="202.058" y="-1271.701" fill="#000" font-family="Times,serif" font-size="14" text-anchor="middle">0180</text></g><g id="edge99" class="edge"><title>0190--0180</title><path fill="none" stroke="silver" d="M166.2037,-1167.7178C174.16,-1191.7247 188.2539,-1234.2506 196.1947,-1258.2109"/></g><g id="node101" class="node"><title>0191</title><ellipse cx="30.35" cy="-1123.109" fill="none" stroke="#000" rx="30.201" ry="18"/><text x="30.35" y="-1118.909" fill="#000" font-family="Times,serif" font-size="14" text-anchor="middle">0191</text></g><g id="edge100" class="edge"><title>0190--0191</title><path fill="none" stroke="silver" d="M131.4685,-1143.9835C109.9318,-1139.5376 80.6295,-1133.4886 59.1122,-1129.0468"/></g><g id="node102" class="node"><title>0199</title><ellipse cx="248.525" cy="-1050.802" fill="none" stroke="#000" rx="30.201" ry="18"/><text x="248.525" y="-1046.602" fill="#000" font-family="Times,serif" font-size="14" text-anchor="middle">0199</text></g><g id="edge101" class="edge"><title>0190--0199</title><path fill="none" stroke="silver" d="M174.4841,-1134.0097C190.8484,-1115.6195 217.6214,-1085.532 234.0941,-1067.0199"/></g><g id="node103" class="node"><title>0102</title><ellipse cx="400.145" cy="-872.45" fill="none" stroke="#000" rx="30.201" ry="18"/><text x="400.145" y="-868.25" fill="#000" font-family="Times,serif" font-size="14" text-anchor="middle">0102</text></g><g id="edge102" class="edge"><title>0101--0102</title><path fill="none" stroke="silver" d="M407.0794,-986.7678C405.5493,-961.5442 402.7944,-916.1293 401.2577,-890.7963"/></g></g></svg>