<svg xmlns="http://www.w3.org/2000/svg" xmlns:xlink="http://www.w3.org/1999/xlink" width="778pt" height="1004" viewBox="0 0 777.62 752.92"><g id="graph0" class="graph" transform="scale(1 1) rotate(0) translate(4 748.9158)"><title>G</title><polygon fill="#fff" stroke="transparent" points="-4 4 -4 -748.916 773.619 -748.916 773.619 4 -4 4"/><g id="node1" class="node"><title>0000</title><ellipse cx="310.887" cy="-298.541" fill="none" stroke="#000" rx="30.201" ry="18"/><text x="310.887" y="-294.341" fill="#000" font-family="Times,serif" font-size="14" text-anchor="middle">0000</text></g><g id="node2" class="node"><title>0001</title><ellipse cx="591.428" cy="-298.541" fill="none" stroke="#000" rx="30.201" ry="18"/><text x="591.428" y="-294.341" fill="#000" font-family="Times,serif" font-size="14" text-anchor="middle">0001</text></g><g id="edge1" class="edge"><title>0000--0001</title><path fill="none" stroke="#000" d="M341.4443,-298.5407C395.4088,-298.5407 506.9714,-298.5407 560.9091,-298.5407"/></g><g id="node3" class="node"><title>0009</title><ellipse cx="309.464" cy="-579.078" fill="none" stroke="#000" rx="30.201" ry="18"/><text x="309.464" y="-574.878" fill="#000" font-family="Times,serif" font-size="14" text-anchor="middle">0009</text></g><g id="edge2" class="edge"><title>0000--0009</title><path fill="none" stroke="#000" d="M310.7941,-316.9475C310.5355,-367.9011 309.8125,-510.3719 309.5557,-560.9679"/></g><g id="node4" class="node"><title>0010</title><ellipse cx="66.989" cy="-437.164" fill="none" stroke="#000" rx="30.201" ry="18"/><text x="66.989" y="-432.964" fill="#000" font-family="Times,serif" font-size="14" text-anchor="middle">0010</text></g><g id="edge3" class="edge"><title>0000--0010</title><path fill="none" stroke="#000" d="M288.8129,-311.0871C242.4946,-337.4127 135.6168,-398.1581 89.189,-424.546"/></g><g id="node5" class="node"><title>0090</title><ellipse cx="30.35" cy="-297.117" fill="none" stroke="#000" rx="30.201" ry="18"/><text x="30.35" y="-292.917" fill="#000" font-family="Times,serif" font-size="14" text-anchor="middle">0090</text></g><g id="edge4" class="edge"><title>0000--0090</title><path fill="none" stroke="#000" d="M280.3311,-298.3856C226.3673,-298.1118 114.8061,-297.5456 60.8691,-297.2719"/></g><g id="node6" class="node"><title>0100</title><ellipse cx="68.408" cy="-157.449" fill="none" stroke="#000" rx="30.201" ry="18"/><text x="68.408" y="-153.249" fill="#000" font-family="Times,serif" font-size="14" text-anchor="middle">0100</text></g><g id="edge5" class="edge"><title>0000--0100</title><path fill="none" stroke="#000" d="M288.9414,-285.7709C242.7761,-258.9087 136.0985,-196.8362 90.1299,-170.0884"/></g><g id="node7" class="node"><title>0900</title><ellipse cx="171.028" cy="-55.348" fill="none" stroke="#000" rx="30.201" ry="18"/><text x="171.028" y="-51.148" fill="#000" font-family="Times,serif" font-size="14" text-anchor="middle">0900</text></g><g id="edge6" class="edge"><title>0000--0900</title><path fill="none" stroke="#000" d="M301.0529,-281.4399C275.3735,-236.7877 206.5192,-117.0613 180.8521,-72.4303"/></g><g id="node8" class="node"><title>1000</title><ellipse cx="310.887" cy="-18" fill="none" stroke="#000" rx="30.201" ry="18"/><text x="310.887" y="-13.8" fill="#000" font-family="Times,serif" font-size="14" text-anchor="middle">1000</text></g><g id="edge7" class="edge"><title>0000--1000</title><path fill="none" stroke="#000" d="M310.8875,-280.1336C310.8875,-229.1795 310.8875,-86.7068 310.8875,-36.1101"/></g><g id="node9" class="node"><title>9000</title><ellipse cx="450.747" cy="-55.348" fill="none" stroke="#000" rx="30.201" ry="18"/><text x="450.747" y="-51.148" fill="#000" font-family="Times,serif" font-size="14" text-anchor="middle">9000</text></g><g id="edge8" class="edge"><title>0000--9000</title><path fill="none" stroke="#000" d="M320.7221,-281.4399C346.4015,-236.7877 415.2557,-117.0613 440.9229,-72.4303"/></g><g id="node10" class="node"><title>0002</title><ellipse cx="458.229" cy="-234.395" fill="none" stroke="#000" rx="30.201" ry="18"/><text x="458.229" y="-230.195" fill="#000" font-family="Times,serif" font-size="14" text-anchor="middle">0002</text></g><g id="edge9" class="edge"><title>0001--0002</title><path fill="none" stroke="silver" d="M567.6149,-287.0728C543.37,-275.3971 506.0063,-257.4037 481.8362,-245.764"/></g><g id="node11" class="node"><title>0011</title><ellipse cx="558.531" cy="-154.407" fill="none" stroke="#000" rx="30.201" ry="18"/><text x="558.531" y="-150.207" fill="#000" font-family="Times,serif" font-size="14" text-anchor="middle">0011</text></g><g id="edge10" class="edge"><title>0001--0011</title><path fill="none" stroke="silver" d="M587.3282,-280.5776C581.0242,-252.9578 569.0174,-200.3525 562.6824,-172.597"/></g><g id="node12" class="node"><title>0091</title><ellipse cx="683.605" cy="-182.955" fill="none" stroke="#000" rx="30.201" ry="18"/><text x="683.605" y="-178.755" fill="#000" font-family="Times,serif" font-size="14" text-anchor="middle">0091</text></g><g id="edge11" class="edge"><title>0001--0091</title><path fill="none" stroke="silver" d="M604.6349,-281.9801C622.1576,-260.0072 652.9123,-221.4421 670.4227,-199.4847"/></g><g id="node13" class="node"><title>0101</title><ellipse cx="739.268" cy="-298.541" fill="none" stroke="#000" rx="30.201" ry="18"/><text x="739.268" y="-294.341" fill="#000" font-family="Times,serif" font-size="14" text-anchor="middle">0101</text></g><g id="edge12" class="edge"><title>0001--0101</title><path fill="none" stroke="silver" d="M622.0607,-298.5407C647.4337,-298.5407 683.3127,-298.5407 708.6748,-298.5407"/></g><g id="node14" class="node"><title>0901</title><ellipse cx="683.605" cy="-414.127" fill="none" stroke="#000" rx="30.201" ry="18"/><text x="683.605" y="-409.927" fill="#000" font-family="Times,serif" font-size="14" text-anchor="middle">0901</text></g><g id="edge13" class="edge"><title>0001--0901</title><path fill="none" stroke="silver" d="M604.6349,-315.1013C622.1576,-337.0742 652.9123,-375.6393 670.4227,-397.5967"/></g><g id="node15" class="node"><title>1001</title><ellipse cx="558.531" cy="-442.674" fill="none" stroke="#000" rx="30.201" ry="18"/><text x="558.531" y="-438.474" fill="#000" font-family="Times,serif" font-size="14" text-anchor="middle">1001</text></g><g id="edge14" class="edge"><title>0001--1001</title><path fill="none" stroke="silver" d="M587.3282,-316.5039C581.0242,-344.1236 569.0174,-396.7289 562.6824,-424.4844"/></g><g id="node16" class="node"><title>9001</title><ellipse cx="458.229" cy="-362.686" fill="none" stroke="#000" rx="30.201" ry="18"/><text x="458.229" y="-358.486" fill="#000" font-family="Times,serif" font-size="14" text-anchor="middle">9001</text></g><g id="edge15" class="edge"><title>0001--9001</title><path fill="none" stroke="silver" d="M567.6149,-310.0086C543.37,-321.6843 506.0063,-339.6777 481.8362,-351.3174"/></g><g id="node17" class="node"><title>0008</title><ellipse cx="374.284" cy="-446.206" fill="none" stroke="#000" rx="30.201" ry="18"/><text x="374.284" y="-442.006" fill="#000" font-family="Times,serif" font-size="14" text-anchor="middle">0008</text></g><g id="edge16" class="edge"><title>0009--0008</title><path fill="none" stroke="silver" d="M317.9379,-561.7071C330.3607,-536.2423 353.3841,-489.0481 365.808,-463.5808"/></g><g id="node18" class="node"><title>0019</title><ellipse cx="453.762" cy="-546.912" fill="none" stroke="#000" rx="30.201" ry="18"/><text x="453.762" y="-542.712" fill="#000" font-family="Times,serif" font-size="14" text-anchor="middle">0019</text></g><g id="edge17" class="edge"><title>0009--0019</title><path fill="none" stroke="silver" d="M337.9725,-572.7229C363.27,-567.0838 400.0331,-558.889 425.3126,-553.2539"/></g><g id="node19" class="node"><title>0099</title><ellipse cx="424.58" cy="-671.84" fill="none" stroke="#000" rx="30.201" ry="18"/><text x="424.58" y="-667.64" fill="#000" font-family="Times,serif" font-size="14" text-anchor="middle">0099</text></g><g id="edge18" class="edge"><title>0009--0099</title><path fill="none" stroke="silver" d="M327.7044,-593.7762C349.2597,-611.1457 384.9071,-639.8708 406.4252,-657.2102"/></g><g id="node20" class="node"><title>0109</title><ellipse cx="308.714" cy="-726.916" fill="none" stroke="#000" rx="30.201" ry="18"/><text x="308.714" y="-722.716" fill="#000" font-family="Times,serif" font-size="14" text-anchor="middle">0109</text></g><g id="edge19" class="edge"><title>0009--0109</title><path fill="none" stroke="silver" d="M309.3718,-597.2056C309.2278,-625.5797 308.9507,-680.1745 308.8063,-708.6397"/></g><g id="node21" class="node"><title>0909</title><ellipse cx="193.412" cy="-670.667" fill="none" stroke="#000" rx="30.201" ry="18"/><text x="193.412" y="-666.467" fill="#000" font-family="Times,serif" font-size="14" text-anchor="middle">0909</text></g><g id="edge20" class="edge"><title>0009--0909</title><path fill="none" stroke="silver" d="M291.075,-593.5903C269.3445,-610.7401 233.4073,-639.1019 211.7144,-656.2221"/></g><g id="node22" class="node"><title>1009</title><ellipse cx="165.499" cy="-545.449" fill="none" stroke="#000" rx="30.201" ry="18"/><text x="165.499" y="-541.249" fill="#000" font-family="Times,serif" font-size="14" text-anchor="middle">1009</text></g><g id="edge21" class="edge"><title>0009--1009</title><path fill="none" stroke="silver" d="M281.021,-572.4339C255.7821,-566.5384 219.1041,-557.9708 193.883,-552.0794"/></g><g id="node23" class="node"><title>9009</title><ellipse cx="245.995" cy="-445.555" fill="none" stroke="#000" rx="30.201" ry="18"/><text x="245.995" y="-441.355" fill="#000" font-family="Times,serif" font-size="14" text-anchor="middle">9009</text></g><g id="edge22" class="edge"><title>0009--9009</title><path fill="none" stroke="silver" d="M301.1664,-561.622C289.0027,-536.0324 266.4595,-488.6069 254.2947,-463.0149"/></g></g></svg>